<svg id="Calque_1" data-name="Calque 1" xmlns="http://www.w3.org/2000/svg" viewBox="0 0 54.84 34.97"><defs><style>.cls-1{fill:#013941;}</style></defs><path class="cls-1" d="M50.76,24v.79a5.66,5.66,0,0,1-5.87,5.42h-.6a6.17,6.17,0,0,1-3.16-.86H9.43A5.36,5.36,0,0,1,4.08,24V10.15A5.36,5.36,0,0,1,9.43,4.8h36a5.36,5.36,0,0,1,5.35,5.35ZM45.41,4h-36a6.21,6.21,0,0,0-6.2,6.2V24a6.21,6.21,0,0,0,6.2,6.2H40.9a7.11,7.11,0,0,0,3.39.86h.6a6.52,6.52,0,0,0,6.72-6.27V10.15A6.21,6.21,0,0,0,45.41,4"/><polygon class="cls-1" points="8.61 8.66 8.61 10.57 7.84 10.57 7.84 7.24 8.44 7.24 9.99 9.19 9.99 7.24 10.76 7.24 10.76 10.57 10.14 10.57 8.61 8.66"/><path class="cls-1" d="M12.82,9.91a.74.74,0,0,0,.34-.08.77.77,0,0,0,.22-.22,1.25,1.25,0,0,0,.12-.31,2.19,2.19,0,0,0,0-.36V7.24h.77v1.7a2.27,2.27,0,0,1-.09.65,1.5,1.5,0,0,1-.26.52,1.47,1.47,0,0,1-.46.36,1.71,1.71,0,0,1-.67.12,1.59,1.59,0,0,1-.68-.13,1.24,1.24,0,0,1-.45-.36,1.46,1.46,0,0,1-.26-.53,2.18,2.18,0,0,1-.08-.63V7.24h.76v1.7a2.21,2.21,0,0,0,0,.37,1.66,1.66,0,0,0,.12.31.63.63,0,0,0,.22.21.67.67,0,0,0,.33.08"/><polygon class="cls-1" points="17.43 7.91 16.41 7.91 16.41 10.57 15.64 10.57 15.64 7.91 14.63 7.91 14.63 7.24 17.43 7.24 17.43 7.91"/><path class="cls-1" d="M18.57,8.82h.71a.27.27,0,0,0,.23-.13.48.48,0,0,0,.1-.33A.48.48,0,0,0,19.5,8a.33.33,0,0,0-.25-.13h-.68Zm-.77,1.75V7.24h1.5a.92.92,0,0,1,.44.1,1.07,1.07,0,0,1,.34.25,1.1,1.1,0,0,1,.23.37,1.14,1.14,0,0,1,.08.4,1,1,0,0,1,0,.3,1.08,1.08,0,0,1-.1.27,2,2,0,0,1-.17.23,1.24,1.24,0,0,1-.23.17l.76,1.24h-.86l-.68-1.08h-.5v1.08Z"/><rect class="cls-1" x="20.99" y="7.24" width="0.77" height="3.33"/><rect class="cls-1" x="22.33" y="8.94" width="1.44" height="0.68"/><polygon class="cls-1" points="39.27 9.89 39.27 10.57 36.93 10.57 36.93 7.24 39.23 7.24 39.23 7.91 37.7 7.91 37.7 8.56 39.01 8.56 39.01 9.18 37.7 9.18 37.7 9.89 39.27 9.89"/><path class="cls-1" d="M31.31,27H23.53V13.85h7.78Zm-8.58,0H15V13.85h7.77Zm-8.57,0H9.43a3,3,0,0,1-3-3V16.89a3,3,0,0,1,3-3h4.73Zm18-13.15h7.31c0-.07.06-.13.1-.19l.37-.61H9.43a3.84,3.84,0,0,0-3.84,3.84V24A3.84,3.84,0,0,0,9.43,27.8H39.89l-.37-.61c0-.06-.06-.12-.1-.19H32.11Z"/><path class="cls-1" d="M34.82,22.61a2.1,2.1,0,0,0,2.37-2.17A2,2,0,0,0,35,18.28H34.3v4.33Zm-1.72.94V17.33H35c2.19,0,3.45,1.16,3.45,3.11,0,1.78-1.35,3.11-3.58,3.11Z"/><path class="cls-1" d="M9.46,21.42h1.85l-.91-2.48Zm-2,2.13L10,17.33h.83l2.57,6.22H12.1l-.44-1.19H9.1l-.45,1.19Z"/><path class="cls-1" d="M18.46,20.85h-.6v1.76h.67c.91,0,1.38-.27,1.38-.91s-.36-.84-1.45-.85m-.6-.86h.56c.77,0,1.13-.36,1.13-.88s-.38-.83-1.33-.83h-.36Zm-1.2,3.56V17.33h1.71c1.76,0,2.41.75,2.41,1.66a1.67,1.67,0,0,1-.68,1.33,1.45,1.45,0,0,1,1,1.38c0,1.12-.74,1.85-2.55,1.85Z"/><path class="cls-1" d="M24.61,20.43a3,3,0,0,1,3-3.19,2.4,2.4,0,0,1,2.48,1.51l-1.14.42a1.43,1.43,0,0,0-1.39-.9c-1,0-1.67.85-1.67,2.15s.64,2.18,1.78,2.18a1.74,1.74,0,0,0,1.55-.93l.9.66a2.7,2.7,0,0,1-2.49,1.31,2.91,2.91,0,0,1-3-3.21"/><path class="cls-1" d="M47.51,24.48H42V16.19h5.4v1.69h-3.3v1.46h2.28V21H44.14v1.75h3.37ZM44.89,11.7h-.6a4.64,4.64,0,0,0-4.84,4.41v8.64a4.63,4.63,0,0,0,4.84,4.4h.6a4.64,4.64,0,0,0,4.85-4.4V16.11a4.65,4.65,0,0,0-4.85-4.41"/><path class="cls-1" d="M26.35,8.21l-.11-.07A1,1,0,0,0,26,8a1.16,1.16,0,0,0-.28-.1,1,1,0,0,0-.3-.05.6.6,0,0,0-.3.07.24.24,0,0,0-.1.21.21.21,0,0,0,0,.14.5.5,0,0,0,.14.1,1,1,0,0,0,.21.08l.3.09a3.62,3.62,0,0,1,.43.14,1.3,1.3,0,0,1,.33.19.83.83,0,0,1,.21.28,1,1,0,0,1,.07.4,1,1,0,0,1-.1.47,1,1,0,0,1-.28.32,1.31,1.31,0,0,1-.4.17,1.88,1.88,0,0,1-.47,0l-.37,0a2.62,2.62,0,0,1-.38-.09,1.48,1.48,0,0,1-.35-.13,1.62,1.62,0,0,1-.32-.17l.34-.67a.35.35,0,0,0,.12.09l.26.13a2.53,2.53,0,0,0,.33.12,1.73,1.73,0,0,0,.38.05c.28,0,.41-.08.41-.25a.2.2,0,0,0-.06-.15.56.56,0,0,0-.17-.11.81.81,0,0,0-.25-.09l-.32-.1-.4-.15a1.15,1.15,0,0,1-.28-.19.85.85,0,0,1-.17-.25,1,1,0,0,1-.05-.33,1,1,0,0,1,.1-.46.82.82,0,0,1,.27-.34A1.22,1.22,0,0,1,25,7.28a1.45,1.45,0,0,1,.47-.07,2.07,2.07,0,0,1,.35,0,1.92,1.92,0,0,1,.32.09l.28.11a1.86,1.86,0,0,1,.25.14Z"/><path class="cls-1" d="M27,8.87a1.54,1.54,0,0,1,.11-.59,1.48,1.48,0,0,1,.31-.53,1.55,1.55,0,0,1,.5-.38,1.51,1.51,0,0,1,.68-.15,1.45,1.45,0,0,1,.77.2A1.25,1.25,0,0,1,29.9,8l-.59.41a.67.67,0,0,0-.13-.22A.75.75,0,0,0,29,8a.53.53,0,0,0-.2-.07.63.63,0,0,0-.19,0,.68.68,0,0,0-.35.09.79.79,0,0,0-.25.23.94.94,0,0,0-.15.32,1.49,1.49,0,0,0-.05.36,1.21,1.21,0,0,0,.06.38,1.26,1.26,0,0,0,.16.33.92.92,0,0,0,.26.22.73.73,0,0,0,.33.08l.2,0A.73.73,0,0,0,29,9.81a.8.8,0,0,0,.17-.15.53.53,0,0,0,.12-.21l.63.37a1.15,1.15,0,0,1-.21.33,1.27,1.27,0,0,1-.33.24,1.32,1.32,0,0,1-.39.15,1.37,1.37,0,0,1-.4.05,1.33,1.33,0,0,1-.63-.14,1.65,1.65,0,0,1-.82-.95A1.68,1.68,0,0,1,27,8.87"/><path class="cls-1" d="M30.9,8.91a1.14,1.14,0,0,0,.05.37,1.07,1.07,0,0,0,.16.32.68.68,0,0,0,.6.31.68.68,0,0,0,.35-.09.92.92,0,0,0,.25-.23.94.94,0,0,0,.15-.32,1.57,1.57,0,0,0,0-.37,1.5,1.5,0,0,0,0-.37,1,1,0,0,0-.16-.32A.65.65,0,0,0,32.05,8a.73.73,0,0,0-.7,0,.78.78,0,0,0-.25.23.86.86,0,0,0-.15.32,1.14,1.14,0,0,0-.05.37m.8,1.68a1.41,1.41,0,0,1-.65-.14,1.89,1.89,0,0,1-.5-.38,1.84,1.84,0,0,1-.32-.54,1.74,1.74,0,0,1,0-1.27,1.55,1.55,0,0,1,.34-.53,1.52,1.52,0,0,1,.5-.37,1.53,1.53,0,0,1,.64-.14,1.38,1.38,0,0,1,.65.15,1.55,1.55,0,0,1,.5.38,1.84,1.84,0,0,1,.32.54,1.93,1.93,0,0,1,.11.62,1.68,1.68,0,0,1-.12.63,1.63,1.63,0,0,1-.33.54,1.52,1.52,0,0,1-.5.37,1.39,1.39,0,0,1-.64.14"/><path class="cls-1" d="M34.51,8.82h.7a.3.3,0,0,0,.24-.13.54.54,0,0,0,.1-.33A.44.44,0,0,0,35.43,8a.3.3,0,0,0-.24-.13h-.68Zm-.77,1.75V7.24h1.5a1,1,0,0,1,.44.1,1.2,1.2,0,0,1,.34.25,1.28,1.28,0,0,1,.23.37,1.14,1.14,0,0,1,.08.4,1,1,0,0,1,0,.3.81.81,0,0,1-.11.27.91.91,0,0,1-.17.23.92.92,0,0,1-.22.17l.76,1.24h-.87L35,9.49h-.5v1.08Z"/></svg>