<svg id="Calque_1" data-name="Calque 1" xmlns="http://www.w3.org/2000/svg" viewBox="0 0 54.84 34.97"><defs><style>.cls-1{fill:#013941;}</style></defs><polygon class="cls-1" points="42.8 23.55 42.8 17.33 46.74 17.33 46.74 18.27 44 18.27 44 19.84 45.95 19.84 45.95 20.78 44 20.78 44 22.61 46.78 22.61 46.78 23.55 42.8 23.55"/><polygon class="cls-1" points="8.61 8.66 8.61 10.57 7.84 10.57 7.84 7.24 8.44 7.24 9.99 9.19 9.99 7.24 10.76 7.24 10.76 10.57 10.14 10.57 8.61 8.66"/><path class="cls-1" d="M12.82,9.91a.67.67,0,0,0,.33-.08.66.66,0,0,0,.22-.22.77.77,0,0,0,.12-.31,1.47,1.47,0,0,0,0-.36V7.24h.77v1.7a2.27,2.27,0,0,1-.09.65,1.51,1.51,0,0,1-.27.52,1.27,1.27,0,0,1-.46.36,1.62,1.62,0,0,1-.66.12,1.59,1.59,0,0,1-.68-.13,1.27,1.27,0,0,1-.46-.36,1.62,1.62,0,0,1-.25-.53,2.18,2.18,0,0,1-.09-.63V7.24h.77v1.7a2.21,2.21,0,0,0,0,.37,1.66,1.66,0,0,0,.12.31.63.63,0,0,0,.22.21.67.67,0,0,0,.33.08"/><polygon class="cls-1" points="17.43 7.91 16.41 7.91 16.41 10.57 15.64 10.57 15.64 7.91 14.63 7.91 14.63 7.24 17.43 7.24 17.43 7.91"/><path class="cls-1" d="M18.57,8.82h.71a.27.27,0,0,0,.23-.13.48.48,0,0,0,.1-.33A.48.48,0,0,0,19.5,8a.33.33,0,0,0-.25-.13h-.68Zm-.77,1.75V7.24h1.5a.92.92,0,0,1,.44.1,1.07,1.07,0,0,1,.34.25,1.1,1.1,0,0,1,.23.37,1.14,1.14,0,0,1,.08.4,1,1,0,0,1,0,.3,1.08,1.08,0,0,1-.1.27,2,2,0,0,1-.17.23,1.24,1.24,0,0,1-.23.17l.76,1.24h-.86l-.68-1.08h-.5v1.08Z"/><rect class="cls-1" x="20.99" y="7.24" width="0.77" height="3.33"/><rect class="cls-1" x="22.33" y="8.94" width="1.44" height="0.68"/><path class="cls-1" d="M26.34,8.21l-.1-.07L26,8a1.16,1.16,0,0,0-.28-.1,1,1,0,0,0-.3-.05.6.6,0,0,0-.3.07.24.24,0,0,0-.1.21.21.21,0,0,0,0,.14.39.39,0,0,0,.14.1.84.84,0,0,0,.21.08l.3.09a3.62,3.62,0,0,1,.43.14,1.3,1.3,0,0,1,.33.19.83.83,0,0,1,.21.28,1,1,0,0,1,.07.4.88.88,0,0,1-.11.47.94.94,0,0,1-.27.32,1.31,1.31,0,0,1-.4.17,1.88,1.88,0,0,1-.47,0l-.37,0a2.62,2.62,0,0,1-.38-.09,1.48,1.48,0,0,1-.35-.13,1.62,1.62,0,0,1-.32-.17l.34-.67a.35.35,0,0,0,.12.09l.26.13a2.53,2.53,0,0,0,.33.12,1.65,1.65,0,0,0,.38.05c.27,0,.41-.08.41-.25a.2.2,0,0,0-.06-.15.56.56,0,0,0-.17-.11.92.92,0,0,0-.25-.09l-.32-.1-.4-.15a1,1,0,0,1-.28-.19.7.7,0,0,1-.17-.25,1,1,0,0,1-.05-.33,1,1,0,0,1,.1-.46.88.88,0,0,1,.26-.34,1.39,1.39,0,0,1,.4-.21,1.41,1.41,0,0,1,.47-.07,1.87,1.87,0,0,1,.34,0,1.78,1.78,0,0,1,.33.09l.28.11a2.8,2.8,0,0,1,.25.14Z"/><path class="cls-1" d="M27,8.87a1.54,1.54,0,0,1,.11-.59,1.48,1.48,0,0,1,.31-.53,1.55,1.55,0,0,1,.5-.38,1.51,1.51,0,0,1,.68-.15,1.45,1.45,0,0,1,.77.2A1.25,1.25,0,0,1,29.9,8l-.59.41a.67.67,0,0,0-.13-.22A.75.75,0,0,0,29,8a.53.53,0,0,0-.2-.07.63.63,0,0,0-.19,0,.68.68,0,0,0-.35.09.79.79,0,0,0-.25.23.94.94,0,0,0-.15.32,1.49,1.49,0,0,0-.05.36,1.21,1.21,0,0,0,.06.38,1.26,1.26,0,0,0,.16.33.92.92,0,0,0,.26.22.73.73,0,0,0,.33.08l.2,0A.73.73,0,0,0,29,9.81a.8.8,0,0,0,.17-.15.53.53,0,0,0,.12-.21l.63.37a1.15,1.15,0,0,1-.21.33,1.27,1.27,0,0,1-.33.24,1.32,1.32,0,0,1-.39.15,1.37,1.37,0,0,1-.4.05,1.33,1.33,0,0,1-.63-.14,1.65,1.65,0,0,1-.82-.95A1.68,1.68,0,0,1,27,8.87"/><path class="cls-1" d="M30.9,8.91a1.14,1.14,0,0,0,.05.37,1.35,1.35,0,0,0,.15.32,1,1,0,0,0,.26.23.78.78,0,0,0,.35.08.68.68,0,0,0,.35-.09.92.92,0,0,0,.25-.23.94.94,0,0,0,.15-.32,1.57,1.57,0,0,0,0-.37,1.15,1.15,0,0,0-.06-.37.79.79,0,0,0-.15-.32A.68.68,0,0,0,32,8a.64.64,0,0,0-.34-.09.68.68,0,0,0-.35.09.78.78,0,0,0-.25.23.86.86,0,0,0-.15.32,1.14,1.14,0,0,0-.05.37m.8,1.68a1.38,1.38,0,0,1-.65-.14,1.89,1.89,0,0,1-.5-.38,1.64,1.64,0,0,1-.32-.54,1.74,1.74,0,0,1,0-1.27,1.55,1.55,0,0,1,.34-.53,1.52,1.52,0,0,1,.5-.37,1.53,1.53,0,0,1,.64-.14,1.41,1.41,0,0,1,.65.15,1.55,1.55,0,0,1,.5.38,1.84,1.84,0,0,1,.32.54,1.93,1.93,0,0,1,.11.62,1.68,1.68,0,0,1-.12.63,1.63,1.63,0,0,1-.33.54,1.52,1.52,0,0,1-.5.37,1.39,1.39,0,0,1-.64.14"/><path class="cls-1" d="M34.51,8.82h.7a.3.3,0,0,0,.24-.13.54.54,0,0,0,.1-.33A.44.44,0,0,0,35.43,8a.3.3,0,0,0-.24-.13h-.68Zm-.77,1.75V7.24h1.5a1,1,0,0,1,.44.1,1.2,1.2,0,0,1,.34.25,1.28,1.28,0,0,1,.23.37,1.14,1.14,0,0,1,.08.4,1,1,0,0,1,0,.3.81.81,0,0,1-.11.27.91.91,0,0,1-.17.23.92.92,0,0,1-.22.17l.76,1.24h-.87L35,9.49h-.5v1.08Z"/><polygon class="cls-1" points="39.27 9.89 39.27 10.57 36.93 10.57 36.93 7.24 39.23 7.24 39.23 7.91 37.7 7.91 37.7 8.56 39.01 8.56 39.01 9.18 37.7 9.18 37.7 9.89 39.27 9.89"/><path class="cls-1" d="M9.46,21.42h1.85l-.91-2.48Zm-2,2.13L10,17.33h.83l2.57,6.22H12.1l-.44-1.19H9.1l-.45,1.19Z"/><path class="cls-1" d="M18.46,20.85h-.6v1.76h.67c.91,0,1.38-.27,1.38-.91s-.36-.84-1.45-.85m-.6-.86h.56c.77,0,1.13-.36,1.13-.88s-.38-.83-1.33-.83h-.36Zm-1.2,3.56V17.33h1.71c1.76,0,2.41.75,2.41,1.66a1.67,1.67,0,0,1-.68,1.33,1.45,1.45,0,0,1,1,1.38c0,1.12-.74,1.85-2.55,1.85Z"/><path class="cls-1" d="M24.45,20.43a2.94,2.94,0,0,1,2.95-3.19,2.41,2.41,0,0,1,2.49,1.51l-1.15.42a1.42,1.42,0,0,0-1.39-.9c-1,0-1.67.85-1.67,2.15s.64,2.18,1.79,2.18A1.73,1.73,0,0,0,29,21.67l.9.66a2.69,2.69,0,0,1-2.49,1.31,2.91,2.91,0,0,1-3-3.21"/><path class="cls-1" d="M35.54,17.92h-.73v4.87h.5a2.23,2.23,0,0,0,2.39-2.46c0-1.49-.6-2.41-2.16-2.41"/><path class="cls-1" d="M35.34,24.48H32.71V16.19h2.84c2.69,0,4.32,1.52,4.32,4.14,0,2.33-1.74,4.15-4.53,4.15m.94-12.78h-.61a4.65,4.65,0,0,0-4.84,4.41v8.64a4.64,4.64,0,0,0,4.84,4.4h.61a4.64,4.64,0,0,0,4.84-4.4V16.11a4.65,4.65,0,0,0-4.84-4.41"/><path class="cls-1" d="M50.76,24a5.36,5.36,0,0,1-5.35,5.35h-6a6.23,6.23,0,0,1-3.16.86h-.61a6.16,6.16,0,0,1-3.15-.86H9.43A5.36,5.36,0,0,1,4.08,24V10.15A5.36,5.36,0,0,1,9.43,4.8h36a5.36,5.36,0,0,1,5.35,5.35ZM45.41,4h-36a6.2,6.2,0,0,0-6.19,6.2V24a6.2,6.2,0,0,0,6.19,6.2H32.29a7.07,7.07,0,0,0,3.38.86h.61a7.07,7.07,0,0,0,3.38-.86h5.75a6.21,6.21,0,0,0,6.2-6.2V10.15A6.21,6.21,0,0,0,45.41,4"/><path class="cls-1" d="M45.41,13.05H40.67l.37.61a1.14,1.14,0,0,1,.1.19h4.27a3,3,0,0,1,3.05,3V24a3,3,0,0,1-3.05,3H41.14a1.14,1.14,0,0,1-.1.19l-.37.61h4.74A3.84,3.84,0,0,0,49.25,24V16.89a3.84,3.84,0,0,0-3.84-3.84"/><path class="cls-1" d="M22.73,27H15V13.85h7.77Zm-8.57,0H9.43a3,3,0,0,1-3-3V16.89a3,3,0,0,1,3-3h4.73Zm9.37-13.15h7.28a1.14,1.14,0,0,1,.1-.19l.37-.61H9.43a3.84,3.84,0,0,0-3.84,3.84V24A3.84,3.84,0,0,0,9.43,27.8H31.28l-.37-.61a1.14,1.14,0,0,1-.1-.19H23.53Z"/></svg>