<svg width="10" height="10" viewBox="0 0 10 10" fill="none" xmlns="http://www.w3.org/2000/svg">
<g clip-path="url(#clip0_2754_2388)">
<path d="M5.10899 9.18623C4.05399 9.18623 2.99999 9.18623 1.94499 9.18623C1.70575 9.19333 1.46782 9.14836 1.24767 9.05443C1.02752 8.9605 0.830416 8.81985 0.66999 8.64223C0.386086 8.33698 0.232524 7.93298 0.24199 7.51623C0.23599 6.26423 0.22399 5.01623 0.24199 3.75923C0.25899 2.79423 0.94199 2.11323 1.91099 2.10623C4.03699 2.09223 6.16299 2.09923 8.28899 2.10623C8.52054 2.10311 8.75003 2.15001 8.96179 2.24372C9.17355 2.33744 9.36259 2.47575 9.51599 2.64923C9.63678 2.7723 9.73187 2.91817 9.79574 3.07835C9.8596 3.23853 9.89096 3.40981 9.88799 3.58223C9.87799 4.91723 9.83099 6.25423 9.90299 7.58223C9.94999 8.45323 9.09699 9.20723 8.31899 9.18823C7.74299 9.17323 7.16599 9.18823 6.58899 9.18823L5.10899 9.18623ZM5.10899 2.59923C4.10299 2.59989 3.09699 2.60023 2.09099 2.60023C1.79099 2.60023 1.49099 2.62823 1.23699 2.80023C0.87299 3.04223 0.74799 3.40023 0.74999 3.82223C0.74999 5.04323 0.74999 6.26323 0.74999 7.48423C0.74999 7.55023 0.74999 7.61623 0.75799 7.68423C0.771627 7.91508 0.861819 8.13481 1.01431 8.30867C1.1668 8.48253 1.37288 8.6006 1.59999 8.64423C1.77665 8.68338 1.95705 8.70316 2.13799 8.70323C4.11732 8.70723 6.09666 8.70723 8.07599 8.70323C8.19161 8.70576 8.30726 8.69975 8.42199 8.68523C9.06099 8.58523 9.42999 8.19523 9.43799 7.55023C9.45299 6.28023 9.43799 5.00923 9.44399 3.73923C9.44399 3.14723 9.03599 2.65723 8.37199 2.60623C8.24099 2.59623 8.10899 2.59723 7.97199 2.59723L5.10899 2.59923Z" fill="black"/>
<path d="M4.17497 0.544922C4.41297 0.618922 4.50797 0.737922 4.35397 0.915922C4.17234 1.12656 3.97367 1.32189 3.75997 1.49992C3.71372 1.52427 3.66224 1.53699 3.60997 1.53699C3.5577 1.53699 3.50622 1.52427 3.45997 1.49992C3.33797 1.41892 3.40297 1.29992 3.49197 1.20992C3.72197 0.986922 3.95497 0.759922 4.17497 0.544922Z" fill="black"/>
<path d="M4.73303 1.37999C4.99003 1.12099 5.21303 0.886992 5.44503 0.661992C5.55103 0.561992 5.68303 0.533992 5.78403 0.661992C5.87203 0.775992 5.79303 0.874992 5.70903 0.961992C5.53603 1.13599 5.36903 1.31499 5.18803 1.47799C5.03903 1.61199 5.03203 1.59999 4.73303 1.37999Z" fill="black"/>
<path d="M6.14404 1.34408C6.38104 1.10808 6.60204 0.869079 6.84404 0.659079C6.88868 0.63167 6.93931 0.615528 6.99157 0.612044C7.04384 0.608559 7.09616 0.617838 7.14404 0.639079C7.26504 0.711079 7.21504 0.839079 7.12904 0.930079C6.94904 1.11808 6.76604 1.30508 6.57604 1.48408C6.42804 1.62708 6.29004 1.60808 6.14404 1.34408Z" fill="black"/>
<path d="M6.46298 3.51305V7.80605H1.26298C1.17498 7.41405 1.14598 4.54705 1.21498 3.55505C1.55598 3.46005 5.55998 3.42605 6.46298 3.51305ZM1.69398 7.25905C2.02798 7.37105 5.47998 7.38505 5.96798 7.25905C5.95998 6.17605 5.99698 5.08405 5.94398 3.97905H1.69398V7.25905Z" fill="black"/>
<path d="M7.91197 4.87518C8.12397 4.87518 8.33597 4.86818 8.54697 4.87518C8.58023 4.87194 8.61379 4.87595 8.64535 4.88693C8.67691 4.89792 8.7057 4.91562 8.72976 4.93882C8.75381 4.96201 8.77254 4.99015 8.78466 5.02129C8.79678 5.05243 8.80201 5.08583 8.79997 5.11918C8.79997 5.29218 8.68197 5.34518 8.54197 5.34718C8.11797 5.35251 7.69397 5.35251 7.26997 5.34718C7.24115 5.35055 7.21195 5.34761 7.18438 5.33856C7.15682 5.32951 7.13155 5.31458 7.11033 5.29479C7.08912 5.275 7.07246 5.25083 7.06152 5.22396C7.05058 5.19709 7.04561 5.16816 7.04697 5.13918C7.04207 5.10652 7.04446 5.07319 7.05396 5.04156C7.06345 5.00994 7.07983 4.9808 7.1019 4.95624C7.12397 4.93168 7.15121 4.91231 7.18164 4.8995C7.21208 4.8867 7.24498 4.88078 7.27797 4.88218C7.48697 4.86718 7.69997 4.87518 7.91197 4.87518Z" fill="black"/>
<path d="M7.92401 6.1402C7.71201 6.1402 7.50001 6.1402 7.28901 6.1402C7.14001 6.1402 7.03601 6.0662 7.04401 5.9012C7.04357 5.8684 7.05006 5.83587 7.06305 5.80575C7.07605 5.77563 7.09526 5.74859 7.11942 5.72641C7.14359 5.70423 7.17217 5.6874 7.20329 5.67702C7.23441 5.66664 7.26737 5.66296 7.30001 5.6662C7.70801 5.6662 8.11501 5.6592 8.52301 5.6662C8.68801 5.6662 8.80701 5.7472 8.79101 5.9392C8.77601 6.1142 8.64201 6.1392 8.50701 6.1392C8.30701 6.1452 8.11601 6.1392 7.92001 6.1392L7.92401 6.1402Z" fill="black"/>
<path d="M7.29103 3.52191C7.35659 3.50376 7.42346 3.49072 7.49103 3.48291C7.58503 3.48291 7.68003 3.48991 7.76603 3.49391C7.91603 3.68691 7.95103 3.89391 7.78703 4.03191C7.72188 4.0713 7.64805 4.09409 7.57203 4.09827C7.496 4.10245 7.42012 4.08791 7.35103 4.05591C7.16303 3.93391 7.24503 3.71791 7.29103 3.52191Z" fill="black"/>
</g>
<defs>
<clipPath id="clip0_2754_2388">
<rect width="10" height="10" fill="white"/>
</clipPath>
</defs>
</svg>
