<svg width="64" height="10" viewBox="0 0 64 10" fill="none" xmlns="http://www.w3.org/2000/svg">
<path d="M2.68286 1.45953C3.90603 1.45953 4.49859 1.45953 5.71643 1.45953L6.09987 0.382812C3.93672 0.382812 2.15333 0.382812 0 0.382812C0 3.46479 0 6.67866 0 9.76064C0.89006 9.76064 1.78012 9.76064 2.67877 9.76064C2.67877 8.30737 2.67877 6.87161 2.67877 5.42649C3.63717 5.42649 3.30979 5.42649 4.26451 5.42649L4.61276 4.47475C3.60362 4.47475 3.67277 4.47475 2.68246 4.47475C2.68286 3.46683 2.68286 2.46867 2.68286 1.45953Z" fill="black"/>
<path d="M25.9803 0.972505C25.9893 1.91814 25.9918 2.19373 25.9959 3.13937C25.9959 3.17519 25.9959 3.21142 25.9959 3.2387C25.7782 3.15321 25.5731 3.04981 25.3558 2.99201C24.7743 2.83691 24.1891 2.87599 23.6146 3.0319C22.5903 3.30994 21.8574 3.92381 21.4997 4.93295C21.2305 5.69337 21.2034 6.60685 21.3757 7.39006C21.6176 8.48835 22.2539 9.26994 23.3265 9.66928C23.7427 9.82438 24.1765 9.88951 24.62 9.83415C25.1316 9.77064 25.5355 9.50604 25.8772 9.1352C25.9193 9.0892 25.9611 9.04279 26.0032 8.99679C26.011 9.00046 26.0184 9.00453 26.0261 9.00819C26.0261 9.25732 26.0261 9.50645 26.0261 9.75721C26.7664 9.75721 27.4953 9.75721 28.2351 9.75721C28.2351 6.35731 28.2351 3.39787 28.2351 0L26.1068 0.803162C26.0126 0.833285 25.9795 0.870736 25.9803 0.972505ZM24.9695 9.02162C24.2816 9.07454 23.642 7.98602 23.5401 6.59016C23.4386 5.19429 23.9137 4.01947 24.6016 3.96655C25.2895 3.91363 25.9296 5.00215 26.0311 6.39802C26.1329 7.79388 25.6574 8.9683 24.9695 9.02162Z" fill="black"/>
<path d="M43.8134 4.16439C43.6558 3.73818 43.4095 3.37751 43.0015 3.15728C42.429 2.84791 41.8233 2.80761 41.2058 3.00219C40.725 3.15362 40.31 3.41211 39.9945 3.81146C39.9507 3.86682 39.9176 3.93073 39.8648 4.01418C39.8648 2.48072 39.8648 1.51392 39.8648 0C39.8648 0 38.392 0.58904 37.6983 0.830436C37.6136 0.856896 37.5911 0.895569 37.5911 0.980648C37.5936 4.05855 37.5932 6.56167 37.5932 9.63957C37.5932 9.67661 37.5932 9.71325 37.5932 9.75518C38.3531 9.75518 39.102 9.75518 39.8668 9.75518C39.8668 9.70959 39.8668 9.67254 39.8668 9.63509C39.8668 9.15026 39.8664 8.66544 39.8668 8.1802C39.8676 7.29969 39.8676 6.4196 39.8713 5.53909C39.8721 5.31927 39.9266 5.10922 40.0383 4.9183C40.238 4.57717 40.5363 4.39235 40.9365 4.42085C41.3253 4.44853 41.5966 4.66632 41.7243 5.02699C41.7873 5.20447 41.8139 5.40272 41.8151 5.59201C41.8225 6.93658 41.8192 8.28116 41.8192 9.62614C41.8192 9.66888 41.8192 9.71203 41.8192 9.75274C42.566 9.75274 43.2969 9.75274 44.036 9.75274C44.036 9.71488 44.036 9.68435 44.036 9.65382C44.036 8.29866 44.0397 6.94391 44.0339 5.58875C44.0319 5.14056 43.9705 4.58897 43.8134 4.16439Z" fill="black"/>
<path d="M31.9754 2.45593C32.1456 2.08183 32.374 1.75413 32.7464 1.55345C33.246 1.28396 34.0313 1.24448 34.506 1.90801C34.6996 2.17871 34.8183 2.48117 34.8797 2.8052C34.914 2.98798 34.9312 3.17361 34.9562 3.36534L36.9495 2.61266C36.8554 2.18116 36.6635 1.80746 36.3676 1.48709C35.7087 0.773894 34.8621 0.460853 33.9147 0.394907C33.1536 0.342394 32.4116 0.46126 31.7016 0.744178C30.5358 1.20906 29.6788 1.99879 29.2193 3.17239C28.7507 4.36838 28.7458 5.59083 29.108 6.81287C29.3936 7.77642 29.9588 8.54783 30.8116 9.0986C31.4045 9.48125 32.0597 9.69497 32.7578 9.78127C33.3348 9.85251 33.9106 9.85699 34.4753 9.697C35.4354 9.42467 36.1667 8.86128 36.6418 7.98159C36.7003 7.8729 36.7498 7.75973 36.7805 7.63842L36.0975 7.37382C35.9936 7.5623 35.9146 7.74752 35.7992 7.9075C35.4088 8.44972 34.8604 8.69967 34.1991 8.7131C33.2174 8.73346 32.4792 8.32964 32.0176 7.45605C31.7581 6.96471 31.6415 6.43266 31.5842 5.88596C31.5101 5.17439 31.5371 4.46404 31.6304 3.75654C31.6898 3.30876 31.7868 2.86993 31.9754 2.45593Z" fill="black"/>
<path d="M49.0061 3.08451C48.2175 2.91395 47.4375 2.97704 46.6858 3.27543C45.8453 3.60883 45.2588 4.20234 44.9339 5.04173C44.6921 5.66619 44.6258 6.31588 44.7142 6.9782C44.8603 8.07486 45.3976 8.9285 46.3592 9.49311C47.1073 9.93235 47.9233 10.098 48.7822 9.94252C49.5405 9.80493 50.1585 9.40722 50.6565 8.82632C50.8247 8.63011 50.9622 8.41273 51.0493 8.16035C50.7878 8.01054 50.5317 7.86359 50.271 7.71419C50.2481 7.75368 50.2288 7.78583 50.21 7.8184C50.0639 8.06957 49.8896 8.29794 49.6797 8.50147C49.0388 9.12267 48.2208 8.93745 47.7453 8.50229C47.4175 8.20268 47.2411 7.81799 47.1458 7.39463C47.1008 7.19517 47.0787 6.99081 47.0439 6.77466C48.4508 6.77466 49.8323 6.77466 51.2188 6.77466C51.263 6.17463 51.2392 5.55221 51.042 4.95258C50.7125 3.95525 50.0459 3.30922 49.0061 3.08451ZM47.0684 5.91125C47.1237 5.28028 47.1957 4.66763 47.5464 4.12988C47.6782 3.92757 47.8541 3.77328 48.1107 3.75497C48.4344 3.73176 48.6562 3.8893 48.8052 4.16367C48.9611 4.45066 49.0167 4.76533 49.0474 5.08366C49.0736 5.356 49.0793 5.63037 49.0945 5.91166C48.4139 5.91125 47.7498 5.91125 47.0684 5.91125Z" fill="black"/>
<path d="M56.0668 2.85696C55.1575 2.7617 54.5195 3.16104 54.1328 3.98375C54.1328 3.57301 54.1328 3.03444 54.1328 2.6123L51.9778 3.43379C51.8874 3.46269 51.8584 3.50014 51.8592 3.59702C51.8755 5.61897 51.8571 9.72271 51.8592 9.7565C52.6011 9.7565 53.3848 9.7565 54.1349 9.7565C54.1349 9.70562 54.1349 9.66491 54.1349 9.6242C54.1349 8.52713 54.1349 7.43006 54.1349 6.33299C54.1349 6.03378 54.1369 5.73458 54.1344 5.43538C54.1328 5.23184 54.1893 5.04988 54.3137 4.88786C54.6996 4.3839 55.4374 4.30534 55.9125 4.72666C56.0504 4.84919 56.1679 4.99411 56.3005 5.13496C56.7175 4.7116 57.1426 4.2801 57.5748 3.84208C57.2179 3.28317 56.7269 2.92616 56.0668 2.85696Z" fill="black"/>
<path d="M58.1977 3.58196C58.2001 5.55954 58.1997 7.66901 58.1997 9.64659C58.1997 9.68282 58.1997 9.71905 58.1997 9.75324C58.9597 9.75324 59.7045 9.75324 60.4582 9.75324C60.4582 7.45733 60.4582 4.90781 60.4582 2.6123L58.3004 3.43745C58.2194 3.4635 58.1977 3.49973 58.1977 3.58196Z" fill="black"/>
<path d="M47.9258 2.12599L50.7997 0.382485L50.9364 0.00878906L48.3309 0.0104177C48.3027 0.00716111 48.2536 0.0368776 48.2405 0.0637446L47.5141 2.0519C47.722 2.13128 47.571 2.07144 47.7682 2.15205C47.8317 2.1781 47.8738 2.16792 47.9258 2.12599Z" fill="black"/>
<path d="M10.6672 3.17408C9.85526 2.83214 9.01022 2.80568 8.16272 3.02957C6.9997 3.33732 6.15098 4.00615 5.68283 5.07513C5.40742 5.70365 5.3665 6.36068 5.48763 7.02665C5.63822 7.85383 6.03885 8.54627 6.75172 9.05878C7.41629 9.53709 8.18522 9.75122 9.00776 9.76139C9.33473 9.71417 9.66906 9.69382 9.98744 9.61525C11.1476 9.32948 12.0024 8.68468 12.4604 7.61732C12.8017 6.82189 12.7747 6.00571 12.5132 5.19807C12.2124 4.27034 11.6125 3.5718 10.6672 3.17408ZM9.98498 8.98184C9.27867 9.23749 8.38943 8.3008 7.88322 6.91674C7.3766 5.53228 7.44453 4.22434 8.15085 3.9687C8.85717 3.71305 9.75173 4.69288 10.2579 6.07735C10.7646 7.46141 10.6913 8.7262 9.98498 8.98184Z" fill="black"/>
<path d="M18.5939 3.17408C17.782 2.83214 16.9369 2.80568 16.0894 3.02957C14.9264 3.33732 14.0777 4.00615 13.6095 5.07513C13.3341 5.70365 13.2932 6.36068 13.4143 7.02665C13.5649 7.85383 13.9655 8.54627 14.6784 9.05878C15.343 9.53709 16.1119 9.75122 16.9345 9.76139C17.2614 9.71417 17.5958 9.69382 17.9141 9.61525C19.0743 9.32948 19.9291 8.68468 20.3871 7.61732C20.7284 6.82189 20.7014 6.00571 20.4399 5.19807C20.1395 4.27034 19.5396 3.5718 18.5939 3.17408ZM17.9117 8.98184C17.2054 9.23749 16.3161 8.3008 15.8099 6.91674C15.3033 5.53228 15.3712 4.22434 16.0775 3.9687C16.7839 3.71305 17.6784 4.69288 18.1846 6.07735C18.6913 7.46141 18.618 8.7262 17.9117 8.98184Z" fill="black"/>
<path d="M59.3303 0.00878906C58.7079 0.00878906 58.2029 0.510714 58.2029 1.13028C58.2029 1.74985 58.7075 2.25178 59.3303 2.25178C59.9532 2.25178 60.4578 1.74985 60.4578 1.13028C60.4578 0.511121 59.9532 0.00878906 59.3303 0.00878906Z" fill="black"/>
<path d="M63.9374 8.33781C63.8437 8.04838 63.6563 7.83019 63.3608 7.70562C63.1071 7.59897 62.8432 7.59042 62.5784 7.66043C62.215 7.7565 61.9498 7.96534 61.8037 8.29955C61.7178 8.49576 61.7051 8.70133 61.7428 8.90935C61.7898 9.16784 61.915 9.384 62.1377 9.54439C62.3451 9.69379 62.5854 9.76055 62.8424 9.7638C62.9447 9.74915 63.049 9.74264 63.1485 9.71821C63.511 9.62906 63.7778 9.42756 63.9211 9.09416C64.0279 8.84503 64.0193 8.5902 63.9374 8.33781Z" fill="black"/>
</svg>
