<svg width="170" height="35" viewBox="0 0 170 35" fill="none" xmlns="http://www.w3.org/2000/svg">
<path d="M57.0912 17.9329H52.8703V16.1077H57.1686V11.791H47.7847V28.2317H52.8703V22.0098H57.0912V17.9329Z" fill="#14195A"/>
<path fill-rule="evenodd" clip-rule="evenodd" d="M74.2067 16.6271C74.6477 17.6875 74.8718 18.8305 74.865 19.9845C74.8609 21.1557 74.6191 22.3131 74.155 23.3819C73.3064 25.4535 71.709 27.1023 69.7019 27.9783C67.636 28.8636 65.3138 28.8636 63.2479 27.9783C61.2433 27.0689 59.6634 25.3855 58.8464 23.2886C57.9887 21.1563 57.9887 18.7594 58.8464 16.6271C59.6951 14.5554 61.2925 12.9066 63.2996 12.0306C65.3654 11.1454 67.6877 11.1454 69.7535 12.0306C71.7606 12.9066 73.358 14.5554 74.2067 16.6271ZM66.5007 23.4218C67.8446 23.421 69.0584 22.5927 69.5857 21.3168H69.6115C69.7854 20.8953 69.8774 20.4426 69.8825 19.9845C69.867 18.6006 69.055 17.3591 67.8173 16.8269C67.4089 16.6475 66.9704 16.5524 66.5265 16.5472C65.1826 16.548 63.9688 17.3763 63.4415 18.6522C63.2677 19.0737 63.1756 19.5264 63.1705 19.9845C63.1816 21.3619 63.9823 22.6017 65.2099 23.1421C65.6183 23.3215 66.0569 23.4166 66.5007 23.4218Z" fill="#14195A"/>
<path fill-rule="evenodd" clip-rule="evenodd" d="M92.11 16.7204C92.9677 18.8526 92.9677 21.2496 92.11 23.3819H92.1487C91.7222 24.4045 91.1136 25.3355 90.3545 26.1264C89.5633 26.9221 88.6294 27.5512 87.6052 27.9783C85.5393 28.8636 83.2171 28.8636 81.1513 27.9783C79.1636 27.091 77.5861 25.4437 76.7497 23.3819C75.892 21.2496 75.892 18.8526 76.7497 16.7204C77.5984 14.6487 79.1958 12.9999 81.2029 12.1239C83.2687 11.2386 85.591 11.2386 87.6568 12.1239C89.6639 12.9999 91.2613 14.6487 92.11 16.7204ZM84.404 23.4218C85.748 23.421 86.9618 22.5927 87.489 21.3168H87.5019C87.6847 20.8982 87.7771 20.4436 87.773 19.9845C87.7553 18.5974 86.9376 17.355 85.6948 16.8269C85.2864 16.6475 84.8479 16.5524 84.404 16.5471C83.0601 16.548 81.8463 17.3763 81.3191 18.6522C81.1452 19.0737 81.0531 19.5264 81.048 19.9845C81.0635 21.3683 81.8756 22.6099 83.1133 23.1421C83.5217 23.3215 83.9602 23.4166 84.404 23.4218Z" fill="#14195A"/>
<path fill-rule="evenodd" clip-rule="evenodd" d="M107.289 16.4274C107.731 17.5569 107.946 18.767 107.922 19.9847C107.949 21.2113 107.734 22.4308 107.289 23.5686C106.892 24.564 106.262 25.4426 105.456 26.1266C104.582 26.8562 103.572 27.3914 102.488 27.6987C101.185 28.0721 99.8378 28.2515 98.4862 28.2317H94.0718V11.8043H98.4862C99.8367 11.7895 101.183 11.9643 102.488 12.3239C103.573 12.6143 104.585 13.1413 105.456 13.8694C106.259 14.5568 106.888 15.4345 107.289 16.4274ZM99.1962 23.5286C100.194 23.5893 101.179 23.2772 101.971 22.6493C102.669 21.9577 103.029 20.9797 102.952 19.9847C103.031 18.9894 102.67 18.0106 101.971 17.3201C101.176 16.7006 100.19 16.3979 99.1962 16.4674V23.5286Z" fill="#14195A"/>
<path d="M120.042 22.8225C119.725 23.011 119.387 23.1587 119.035 23.2621C118.593 23.4052 118.131 23.4727 117.667 23.462C117.185 23.4634 116.707 23.3684 116.26 23.1822C115.842 23.0176 115.461 22.7685 115.137 22.4494C114.817 22.143 114.562 21.7709 114.389 21.3569C114.213 20.936 114.121 20.483 114.118 20.0246C114.11 18.6246 114.92 17.3576 116.17 16.8138C116.603 16.6256 117.068 16.5304 117.538 16.534C117.975 16.5225 118.41 16.5809 118.829 16.7072C119.19 16.8271 119.526 16.9603 119.797 17.0802C120.068 17.2001 120.378 17.4533 120.623 17.6398L123.127 13.0833C122.651 12.7433 122.14 12.4574 121.604 12.2306C120.259 11.6351 118.809 11.3313 117.345 11.338C116.24 11.3536 115.146 11.5747 114.118 11.9908C113.123 12.3762 112.214 12.9653 111.446 13.7228C110.677 14.4777 110.063 15.3837 109.639 16.3874C109.17 17.5243 108.937 18.7495 108.954 19.9847C108.941 21.1884 109.156 22.3833 109.587 23.5019C109.999 24.5091 110.61 25.4166 111.381 26.1665C112.164 26.9505 113.09 27.5663 114.105 27.9785C115.201 28.4083 116.365 28.6251 117.538 28.618C118.382 28.6296 119.224 28.5266 120.042 28.3116C120.666 28.141 121.279 27.9274 121.875 27.6721C122.422 27.4229 122.934 27.1003 123.398 26.7128L120.894 22.1563C120.68 22.4294 120.411 22.652 120.107 22.8091" fill="#14195A"/>
<path d="M129.336 22.143H132.163V28.2317H137.274V11.791H132.163V17.3734H129.336V11.791H124.25V28.2317H129.336V22.143Z" fill="#14195A"/>
<path d="M12.3268 30.1634C11.8496 29.786 11.2395 29.6359 10.6487 29.7503C9.72689 29.888 8.79122 29.6224 8.06717 29.0176C6.77639 27.9784 6.2988 26.353 7.00873 25.3937C7.71866 24.4345 9.35795 24.4611 10.6746 25.487C11.4495 26.0484 11.9527 26.927 12.0557 27.8984C12.1077 28.5208 12.4185 29.0894 12.9076 29.4572L17.7351 33.3076V33.0278C17.6404 31.0899 17.3197 29.1709 16.7799 27.3122C15.3601 22.9023 12.6624 19.6915 7.96391 19.1585C5.31574 18.9996 2.66086 18.9996 0.0126953 19.1585C0.0126953 19.3584 0.322483 20.4908 0.412838 20.9305C0.877519 22.9023 1.18731 24.9274 1.70362 26.8326C3.76887 33.7073 11.449 35.8523 17.193 34.2269L12.3268 30.1634Z" fill="#14195A"/>
<path fill-rule="evenodd" clip-rule="evenodd" d="M161.425 21.7165C161.117 22.1337 160.752 22.5018 160.341 22.809L163.335 28.2181H157.359L154.971 24.0613V28.2048H149.885V11.7908H155.371C156.328 11.7805 157.281 11.9198 158.198 12.2038C159.022 12.4617 159.789 12.8825 160.457 13.4429C161.092 13.99 161.599 14.6776 161.941 15.4547C162.318 16.3162 162.503 17.254 162.483 18.1992C162.509 18.9115 162.399 19.622 162.161 20.2909C161.979 20.7982 161.731 21.2777 161.425 21.7165ZM155.216 19.8779C155.756 19.8945 156.289 19.7512 156.752 19.4649L156.701 19.3983C157.116 19.0928 157.354 18.5918 157.333 18.066C157.384 17.512 157.142 16.9726 156.701 16.6537C156.237 16.3675 155.704 16.2241 155.165 16.2407H154.893V19.8779H155.216Z" fill="#14195A"/>
<path d="M164.097 11.791H169.492V28.2183H164.097V11.791Z" fill="#14195A"/>
<path d="M37.0325 0C33.6217 1.07746 30.3019 2.44096 27.1064 4.07685C19.9942 8.47346 16.7801 14.9884 17.6837 23.6218C18.0901 27.0895 19.068 30.4599 20.575 33.5874L24.2537 25.4603C24.9249 23.9282 23.9052 22.7957 23.7891 22.1829C23.7245 21.798 23.7787 21.4018 23.944 21.0504L27.1064 14.0158C27.2471 13.6977 27.6094 13.5552 27.9196 13.6961C28.2278 13.8413 28.3659 14.2153 28.2293 14.5354L25.9576 19.7048C25.8211 20.0249 25.9591 20.3989 26.2674 20.5441C26.5775 20.685 26.9398 20.5426 27.0806 20.2244L29.3523 15.055C29.4931 14.7368 29.8554 14.5944 30.1655 14.7353C30.4738 14.8805 30.6118 15.2545 30.4753 15.5746L28.2035 20.744C28.067 21.0641 28.205 21.4381 28.5133 21.5833C28.8235 21.7242 29.1858 21.5818 29.3265 21.2636L31.5983 16.0942C31.739 15.776 32.1013 15.6336 32.4115 15.7745C32.7198 15.9197 32.8578 16.2937 32.7213 16.6138L29.6234 23.6351C29.4705 23.9917 29.2132 24.2899 28.8876 24.4878C28.3713 24.8208 26.8611 24.7675 26.1899 26.2997L22.5886 34.5333C26.5664 33.4509 30.264 31.4767 33.4183 28.7511C37.7548 25.2719 40.2085 19.8547 40.0142 14.189C40.0142 9.32613 38.3878 4.67639 37.0325 0Z" fill="#14195A"/>
<path d="M147.639 7.02124H144.128L142.141 10.8316H144.787L147.639 7.02124Z" fill="#14195A"/>
<path d="M143.935 22.0098H148.169V17.9329H143.935V16.1077H148.233V11.791H138.875V28.2317H148.401V23.915H143.935V22.0098Z" fill="#14195A"/>
</svg>
